<svg xmlns="http://www.w3.org/2000/svg" viewBox="0 0 32 32">
  <rect width="32" height="32" rx="6" fill="#1a1a1a"/>
  <g fill="#ffffff">
    <!-- tre occhi di posizionamento + qualche modulo, stile QR -->
    <path d="M6 6h7v7H6V6zm2 2v3h3V8H8z"/>
    <path d="M19 6h7v7h-7V6zm2 2v3h3V8h-3z"/>
    <path d="M6 19h7v7H6v-7zm2 2v3h3v-3H8z"/>
    <rect x="18" y="18" width="2" height="2"/>
    <rect x="22" y="18" width="2" height="2"/>
    <rect x="24" y="20" width="2" height="2"/>
    <rect x="18" y="22" width="2" height="2"/>
    <rect x="20" y="24" width="2" height="2"/>
    <rect x="24" y="24" width="2" height="2"/>
  </g>
</svg>
